<svg width="94" height="45" viewBox="0 0 94 45" fill="none" xmlns="http://www.w3.org/2000/svg">
<rect width="94" height="45" fill="white"/>
<path d="M41.6119 13.4545H42.9957V17.7053C42.9957 18.1825 42.8817 18.6001 42.6538 18.9581C42.4279 19.3161 42.1115 19.5952 41.7045 19.7955C41.2976 19.9936 40.8235 20.0927 40.2823 20.0927C39.739 20.0927 39.2638 19.9936 38.8569 19.7955C38.4499 19.5952 38.1335 19.3161 37.9077 18.9581C37.6818 18.6001 37.5689 18.1825 37.5689 17.7053V13.4545H38.9528V17.587C38.9528 17.8363 39.0071 18.0579 39.1158 18.2518C39.2266 18.4457 39.3821 18.598 39.5824 18.7088C39.7827 18.8196 40.016 18.875 40.2823 18.875C40.5508 18.875 40.7841 18.8196 40.9822 18.7088C41.1825 18.598 41.337 18.4457 41.4457 18.2518C41.5565 18.0579 41.6119 17.8363 41.6119 17.587V13.4545ZM47.6851 15.337C47.6595 15.0792 47.5498 14.8789 47.3559 14.7362C47.162 14.5934 46.8989 14.522 46.5665 14.522C46.3406 14.522 46.1499 14.554 45.9944 14.6179C45.8389 14.6797 45.7195 14.766 45.6365 14.8768C45.5555 14.9876 45.515 15.1133 45.515 15.2539C45.5107 15.3711 45.5352 15.4734 45.5885 15.5607C45.6439 15.6481 45.7195 15.7237 45.8154 15.7876C45.9113 15.8494 46.0221 15.9038 46.1478 15.9506C46.2735 15.9954 46.4078 16.0337 46.5505 16.0657L47.1386 16.2063C47.4241 16.2702 47.6862 16.3555 47.9248 16.462C48.1634 16.5685 48.3701 16.6996 48.5448 16.8551C48.7195 17.0107 48.8548 17.1939 48.9507 17.4048C49.0487 17.6158 49.0988 17.8576 49.1009 18.1303C49.0988 18.5309 48.9965 18.8782 48.7941 19.1722C48.5938 19.4641 48.3041 19.6911 47.9248 19.853C47.5477 20.0128 47.0928 20.0927 46.5601 20.0927C46.0317 20.0927 45.5715 20.0117 45.1794 19.8498C44.7895 19.6879 44.4848 19.4482 44.2654 19.1307C44.048 18.8111 43.934 18.4158 43.9234 17.945H45.2625C45.2774 18.1644 45.3403 18.3477 45.4511 18.4947C45.564 18.6396 45.7142 18.7493 45.9017 18.8239C46.0914 18.8963 46.3055 18.9325 46.5441 18.9325C46.7785 18.9325 46.982 18.8984 47.1546 18.8303C47.3293 18.7621 47.4646 18.6673 47.5605 18.5458C47.6563 18.4244 47.7043 18.2848 47.7043 18.1271C47.7043 17.9801 47.6606 17.8565 47.5732 17.7564C47.488 17.6562 47.3623 17.571 47.1961 17.5007C47.032 17.4304 46.8307 17.3665 46.5921 17.3089L45.8794 17.13C45.3275 16.9957 44.8918 16.7859 44.5722 16.5004C44.2526 16.2148 44.0938 15.8303 44.096 15.3466C44.0938 14.9503 44.1993 14.604 44.4124 14.3079C44.6276 14.0117 44.9227 13.7805 45.2977 13.6143C45.6727 13.4482 46.0988 13.3651 46.5761 13.3651C47.0619 13.3651 47.4859 13.4482 47.8481 13.6143C48.2124 13.7805 48.4958 14.0117 48.6982 14.3079C48.9007 14.604 49.0051 14.9471 49.0115 15.337H47.6851ZM52.3521 20H50.0318V13.4545H52.3713C53.0297 13.4545 53.5964 13.5856 54.0716 13.8477C54.5467 14.1076 54.9121 14.4815 55.1678 14.9695C55.4256 15.4574 55.5545 16.0412 55.5545 16.7209C55.5545 17.4027 55.4256 17.9886 55.1678 18.4787C54.9121 18.9687 54.5446 19.3448 54.0652 19.6069C53.5879 19.869 53.0169 20 52.3521 20ZM51.4157 18.8143H52.2946C52.7037 18.8143 53.0478 18.7418 53.3269 18.5969C53.6081 18.4499 53.8191 18.223 53.9597 17.9162C54.1025 17.6072 54.1738 17.2088 54.1738 16.7209C54.1738 16.2372 54.1025 15.842 53.9597 15.5352C53.8191 15.2283 53.6092 15.0025 53.3301 14.8576C53.051 14.7127 52.7069 14.6403 52.2978 14.6403H51.4157V18.8143ZM56.0315 14.5955V13.4545H61.4072V14.5955H59.4033V20H58.0354V14.5955H56.0315ZM62.2925 20V13.4545H64.8749C65.3692 13.4545 65.7911 13.543 66.1405 13.7198C66.4921 13.8945 66.7595 14.1428 66.9427 14.4645C67.1281 14.7841 67.2208 15.1602 67.2208 15.5927C67.2208 16.0273 67.127 16.4013 66.9395 16.7145C66.752 17.0256 66.4804 17.2642 66.1246 17.4304C65.7709 17.5966 65.3426 17.6797 64.8398 17.6797H63.1107V16.5675H64.616C64.8802 16.5675 65.0997 16.5312 65.2744 16.4588C65.4491 16.3864 65.5791 16.2777 65.6643 16.1328C65.7517 15.9879 65.7954 15.8079 65.7954 15.5927C65.7954 15.3754 65.7517 15.1921 65.6643 15.043C65.5791 14.8938 65.4481 14.7809 65.2712 14.7042C65.0965 14.6254 64.876 14.5859 64.6096 14.5859H63.6764V20H62.2925ZM65.8273 17.0213L67.4541 20H65.9264L64.3348 17.0213H65.8273ZM73.974 15.7461H72.5741C72.5486 15.565 72.4964 15.4041 72.4175 15.2635C72.3387 15.1207 72.2375 14.9993 72.1139 14.8991C71.9903 14.799 71.8476 14.7223 71.6856 14.669C71.5258 14.6158 71.3522 14.5891 71.1647 14.5891C70.8259 14.5891 70.5308 14.6733 70.2794 14.8416C70.028 15.0078 69.833 15.2507 69.6945 15.5703C69.556 15.8878 69.4868 16.2734 69.4868 16.7273C69.4868 17.1939 69.556 17.5859 69.6945 17.9034C69.8351 18.2209 70.0312 18.4606 70.2826 18.6225C70.534 18.7844 70.8248 18.8654 71.1551 18.8654C71.3405 18.8654 71.512 18.8409 71.6697 18.7919C71.8295 18.7429 71.9711 18.6715 72.0947 18.5778C72.2183 18.4819 72.3206 18.3658 72.4015 18.2294C72.4846 18.093 72.5422 17.9375 72.5741 17.7628L73.974 17.7692C73.9378 18.0696 73.8472 18.3594 73.7023 18.6385C73.5596 18.9155 73.3667 19.1637 73.1238 19.3832C72.8831 19.6005 72.5954 19.7731 72.2609 19.9009C71.9285 20.0266 71.5525 20.0895 71.1327 20.0895C70.5489 20.0895 70.0269 19.9574 69.5667 19.6932C69.1086 19.429 68.7464 19.0465 68.48 18.5458C68.2158 18.0451 68.0837 17.4389 68.0837 16.7273C68.0837 16.0135 68.218 15.4062 68.4864 14.9055C68.7549 14.4048 69.1192 14.0234 69.5795 13.7614C70.0397 13.4972 70.5574 13.3651 71.1327 13.3651C71.512 13.3651 71.8635 13.4183 72.1874 13.5249C72.5134 13.6314 72.8021 13.7869 73.0535 13.9915C73.305 14.1939 73.5095 14.4421 73.6672 14.7362C73.827 15.0302 73.9292 15.3668 73.974 15.7461ZM74.928 20V19.0028L77.2579 16.8455C77.4561 16.6538 77.6222 16.4812 77.7565 16.3278C77.8928 16.1744 77.9962 16.0241 78.0665 15.8771C78.1368 15.728 78.172 15.5671 78.172 15.3945C78.172 15.2028 78.1283 15.0376 78.0409 14.8991C77.9536 14.7585 77.8343 14.6509 77.683 14.5763C77.5317 14.4996 77.3602 14.4613 77.1684 14.4613C76.9681 14.4613 76.7934 14.5018 76.6443 14.5827C76.4951 14.6637 76.3801 14.7798 76.2991 14.9311C76.2181 15.0824 76.1776 15.2624 76.1776 15.4712H74.8641C74.8641 15.043 74.961 14.6712 75.1549 14.3558C75.3488 14.0405 75.6205 13.7965 75.9699 13.6239C76.3193 13.4513 76.722 13.3651 77.178 13.3651C77.6468 13.3651 78.0548 13.4482 78.4021 13.6143C78.7515 13.7784 79.0232 14.0064 79.2171 14.2983C79.411 14.5902 79.5079 14.9247 79.5079 15.3018C79.5079 15.549 79.4589 15.793 79.3609 16.0337C79.265 16.2745 79.0935 16.5419 78.8463 16.8359C78.5992 17.1278 78.2508 17.4783 77.8012 17.8874L76.8456 18.8239V18.8686H79.5942V20H74.928ZM83.1634 20.1438C82.6136 20.1417 82.1406 20.0064 81.7443 19.7379C81.3501 19.4695 81.0465 19.0806 80.8335 18.5714C80.6225 18.0621 80.5181 17.4496 80.5202 16.7337C80.5202 16.0199 80.6257 15.4116 80.8366 14.9087C81.0497 14.4059 81.3533 14.0234 81.7475 13.7614C82.1438 13.4972 82.6158 13.3651 83.1634 13.3651C83.7109 13.3651 84.1818 13.4972 84.576 13.7614C84.9723 14.0256 85.277 14.4091 85.4901 14.9119C85.7031 15.4126 85.8086 16.0199 85.8065 16.7337C85.8065 17.4517 85.6999 18.0653 85.4869 18.5746C85.2759 19.0838 84.9734 19.4727 84.5792 19.7411C84.185 20.0096 83.7131 20.1438 83.1634 20.1438ZM83.1634 18.9964C83.5384 18.9964 83.8377 18.8079 84.0614 18.4308C84.2852 18.0536 84.396 17.4879 84.3938 16.7337C84.3938 16.2372 84.3427 15.8239 84.2404 15.4936C84.1403 15.1634 83.9975 14.9151 83.8121 14.7489C83.6289 14.5827 83.4126 14.4996 83.1634 14.4996C82.7905 14.4996 82.4922 14.6861 82.2685 15.0589C82.0447 15.4318 81.9318 15.9901 81.9297 16.7337C81.9297 17.2365 81.9798 17.6562 82.0799 17.9929C82.1822 18.3274 82.326 18.5788 82.5114 18.7472C82.6967 18.9134 82.9141 18.9964 83.1634 18.9964Z" fill="black"/>
<path d="M48.7006 27.9091V33H47.771L45.5561 29.7958H45.5188V33H44.4425V27.9091H45.3871L47.5845 31.1108H47.6293V27.9091H48.7006ZM49.5899 33V27.9091H53.0203V28.7965H50.6663V30.0096H52.8438V30.897H50.6663V32.1126H53.0303V33H49.5899ZM53.6822 28.7965V27.9091H57.8633V28.7965H56.3047V33H55.2408V28.7965H53.6822ZM59.6978 33L58.2411 27.9091H59.4169L60.2596 31.4464H60.3018L61.2315 27.9091H62.2383L63.1655 31.4538H63.2102L64.0529 27.9091H65.2287L63.772 33H62.723L61.7536 29.6715H61.7138L60.7468 33H59.6978ZM70.1959 30.4545C70.1959 31.0097 70.0907 31.482 69.8802 31.8714C69.6714 32.2609 69.3864 32.5584 69.0251 32.7638C68.6655 32.9677 68.2612 33.0696 67.8121 33.0696C67.3596 33.0696 66.9536 32.9669 66.594 32.7614C66.2344 32.5559 65.9502 32.2584 65.7414 31.869C65.5326 31.4795 65.4282 31.008 65.4282 30.4545C65.4282 29.8994 65.5326 29.4271 65.7414 29.0376C65.9502 28.6482 66.2344 28.3516 66.594 28.1477C66.9536 27.9422 67.3596 27.8395 67.8121 27.8395C68.2612 27.8395 68.6655 27.9422 69.0251 28.1477C69.3864 28.3516 69.6714 28.6482 69.8802 29.0376C70.0907 29.4271 70.1959 29.8994 70.1959 30.4545ZM69.1047 30.4545C69.1047 30.0949 69.0508 29.7917 68.9431 29.5447C68.837 29.2978 68.6871 29.1106 68.4932 28.983C68.2993 28.8554 68.0722 28.7915 67.8121 28.7915C67.5519 28.7915 67.3248 28.8554 67.1309 28.983C66.9371 29.1106 66.7863 29.2978 66.6785 29.5447C66.5725 29.7917 66.5194 30.0949 66.5194 30.4545C66.5194 30.8142 66.5725 31.1174 66.6785 31.3643C66.7863 31.6113 66.9371 31.7985 67.1309 31.9261C67.3248 32.0537 67.5519 32.1175 67.8121 32.1175C68.0722 32.1175 68.2993 32.0537 68.4932 31.9261C68.6871 31.7985 68.837 31.6113 68.9431 31.3643C69.0508 31.1174 69.1047 30.8142 69.1047 30.4545ZM70.9933 33V27.9091H73.0018C73.3862 27.9091 73.7144 27.9779 73.9862 28.1154C74.2596 28.2513 74.4676 28.4444 74.6101 28.6946C74.7543 28.9432 74.8263 29.2357 74.8263 29.5721C74.8263 29.9102 74.7534 30.201 74.6076 30.4446C74.4618 30.6866 74.2505 30.8722 73.9737 31.0014C73.6986 31.1307 73.3655 31.1953 72.9744 31.1953H71.6296V30.3303H72.8004C73.0059 30.3303 73.1766 30.3021 73.3125 30.2457C73.4484 30.1894 73.5495 30.1049 73.6158 29.9922C73.6837 29.8795 73.7177 29.7395 73.7177 29.5721C73.7177 29.4031 73.6837 29.2605 73.6158 29.1445C73.5495 29.0285 73.4476 28.9407 73.31 28.881C73.1741 28.8197 73.0026 28.7891 72.7955 28.7891H72.0696V33H70.9933ZM73.7425 30.6832L75.0078 33H73.8196L72.5817 30.6832H73.7425ZM75.587 33V27.9091H76.6634V30.1538H76.7305L78.5625 27.9091H79.8526L77.9634 30.1886L79.875 33H78.5874L77.1928 30.907L76.6634 31.5533V33H75.587Z" fill="#26A69A"/>
<path d="M17.5 34.5827C24.1734 34.5827 29.5833 29.1728 29.5833 22.4993C29.5833 15.8259 24.1734 10.416 17.5 10.416C10.8265 10.416 5.41663 15.8259 5.41663 22.4993C5.41663 29.1728 10.8265 34.5827 17.5 34.5827Z" fill="#26A69A"/>
<path d="M22.9375 15.8535H12.0625V18.8743H22.9375V15.8535Z" fill="white"/>
<path d="M17.5 20.6875C14.8072 20.6875 10.25 21.1328 10.25 22.8021C10.25 24.4714 14.8072 24.9167 17.5 24.9167C20.1928 24.9167 24.75 24.4714 24.75 22.8021C24.75 21.1328 20.1928 20.6875 17.5 20.6875ZM17.5 23.7083C14.1632 23.7083 11.4583 23.1676 11.4583 22.5C11.4583 21.8324 14.1632 21.2917 17.5 21.2917C20.8368 21.2917 23.5417 21.8324 23.5417 22.5C23.5417 23.1676 20.8368 23.7083 17.5 23.7083Z" fill="white"/>
<path d="M17.5 22.4993C18.1616 22.4993 18.7645 22.477 19.3125 22.4401V15.8535H15.6875V22.4401C16.2355 22.477 16.8384 22.4993 17.5 22.4993Z" fill="white"/>
<path d="M18.541 23.6886C18.4739 23.691 18.4062 23.6928 18.338 23.6946C18.0631 23.7025 17.7852 23.7079 17.5 23.7079C17.2148 23.7079 16.9369 23.7025 16.662 23.6952C16.5938 23.6934 16.5261 23.6916 16.459 23.6892C16.1962 23.6801 15.9376 23.6687 15.6875 23.6529V29.7496H19.3125V23.6523C19.0624 23.6681 18.8038 23.6795 18.541 23.6886Z" fill="white"/>
</svg>
